<svg width="460" height="150" viewBox="0 0 460 150" fill="none" xmlns="http://www.w3.org/2000/svg">
<path d="M264.688 118.75C264.542 121.042 264.042 123.104 263.188 124.938C262.354 126.771 261.229 128.333 259.812 129.625C258.396 130.917 256.708 131.917 254.75 132.625C252.792 133.312 250.625 133.656 248.25 133.656C246.375 133.656 244.635 133.417 243.031 132.938C241.448 132.438 240.021 131.729 238.75 130.812C237.583 129.958 236.542 128.927 235.625 127.719C234.729 126.51 233.969 125.177 233.344 123.719C232.74 122.26 232.271 120.656 231.938 118.906C231.625 117.156 231.469 115.302 231.469 113.344V107.219C231.469 105.385 231.615 103.646 231.906 102C232.198 100.333 232.635 98.7917 233.219 97.375C233.885 95.6458 234.76 94.1042 235.844 92.75C236.927 91.3958 238.156 90.25 239.531 89.3125C240.76 88.5208 242.104 87.9167 243.562 87.5C245.042 87.0625 246.625 86.8438 248.312 86.8438C250.812 86.8438 253.031 87.1979 254.969 87.9062C256.927 88.6146 258.594 89.625 259.969 90.9375C261.344 92.25 262.427 93.8542 263.219 95.75C264.01 97.6458 264.51 99.7812 264.719 102.156H255.969C255.885 100.802 255.677 99.6146 255.344 98.5938C255.031 97.5729 254.573 96.7188 253.969 96.0312C253.344 95.3646 252.562 94.8646 251.625 94.5312C250.708 94.1771 249.604 94 248.312 94C247.625 94 246.979 94.0729 246.375 94.2188C245.792 94.3646 245.25 94.5833 244.75 94.875C243.896 95.375 243.167 96.0938 242.562 97.0312C241.979 97.9479 241.51 99.0208 241.156 100.25C240.885 101.208 240.688 102.271 240.562 103.438C240.438 104.583 240.375 105.823 240.375 107.156V113.344C240.375 115.156 240.469 116.781 240.656 118.219C240.865 119.635 241.177 120.875 241.594 121.938C241.885 122.667 242.229 123.312 242.625 123.875C243.042 124.438 243.51 124.906 244.031 125.281C244.594 125.698 245.219 126.01 245.906 126.219C246.615 126.406 247.396 126.5 248.25 126.5C249.396 126.5 250.427 126.354 251.344 126.062C252.26 125.771 253.042 125.312 253.688 124.688C254.333 124.062 254.844 123.26 255.219 122.281C255.594 121.302 255.823 120.125 255.906 118.75H264.688ZM288.25 133.625C285.646 133.625 283.281 133.198 281.156 132.344C279.031 131.49 277.208 130.323 275.688 128.844C274.167 127.385 272.99 125.667 272.156 123.688C271.344 121.688 270.938 119.552 270.938 117.281V116.031C270.938 113.448 271.344 111.094 272.156 108.969C272.969 106.823 274.104 104.979 275.562 103.438C277.021 101.896 278.75 100.698 280.75 99.8438C282.75 98.9896 284.927 98.5625 287.281 98.5625C289.719 98.5625 291.885 98.9688 293.781 99.7812C295.698 100.573 297.323 101.698 298.656 103.156C299.969 104.615 300.969 106.375 301.656 108.438C302.344 110.479 302.688 112.74 302.688 115.219V118.906H279.75V119C280.042 120.354 280.417 121.448 280.875 122.281C281.333 123.094 281.948 123.833 282.719 124.5C283.51 125.188 284.417 125.719 285.438 126.094C286.458 126.469 287.573 126.656 288.781 126.656C290.49 126.656 292.146 126.333 293.75 125.688C295.354 125.042 296.656 124.073 297.656 122.781L302 127.469C300.896 129.031 299.146 130.448 296.75 131.719C294.354 132.99 291.521 133.625 288.25 133.625ZM287.219 105.594C286.24 105.594 285.344 105.771 284.531 106.125C283.719 106.458 283.01 106.948 282.406 107.594C281.781 108.24 281.26 109.01 280.844 109.906C280.427 110.802 280.115 111.802 279.906 112.906H294.156V112.219C294.156 111.302 293.99 110.438 293.656 109.625C293.323 108.812 292.865 108.104 292.281 107.5C291.698 106.917 290.979 106.458 290.125 106.125C289.292 105.771 288.323 105.594 287.219 105.594ZM310.406 146V99.1875H318.438L318.75 102.5C319.208 101.938 319.708 101.438 320.25 101C320.792 100.542 321.375 100.146 322 99.8125C322.75 99.4167 323.573 99.1146 324.469 98.9062C325.385 98.6771 326.365 98.5625 327.406 98.5625C329.552 98.5625 331.448 98.9792 333.094 99.8125C334.74 100.625 336.125 101.781 337.25 103.281C338.375 104.802 339.219 106.625 339.781 108.75C340.365 110.854 340.656 113.188 340.656 115.75V116.406C340.656 118.865 340.365 121.146 339.781 123.25C339.219 125.354 338.385 127.167 337.281 128.688C336.156 130.229 334.771 131.438 333.125 132.312C331.479 133.188 329.594 133.625 327.469 133.625C326.344 133.625 325.302 133.5 324.344 133.25C323.406 133.021 322.531 132.677 321.719 132.219C321.24 131.927 320.781 131.604 320.344 131.25C319.906 130.896 319.49 130.5 319.094 130.062V146H310.406ZM331.969 115.75C331.969 114.333 331.833 113.01 331.562 111.781C331.312 110.531 330.917 109.448 330.375 108.531C329.812 107.635 329.094 106.927 328.219 106.406C327.365 105.885 326.323 105.625 325.094 105.625C324.385 105.625 323.74 105.698 323.156 105.844C322.573 105.969 322.042 106.156 321.562 106.406C321.021 106.698 320.542 107.062 320.125 107.5C319.729 107.938 319.385 108.448 319.094 109.031V123.156C319.365 123.698 319.688 124.188 320.062 124.625C320.458 125.062 320.906 125.438 321.406 125.75C321.885 126.042 322.438 126.271 323.062 126.438C323.688 126.583 324.385 126.656 325.156 126.656C326.385 126.656 327.427 126.385 328.281 125.844C329.156 125.302 329.865 124.562 330.406 123.625C330.948 122.688 331.344 121.604 331.594 120.375C331.844 119.125 331.969 117.802 331.969 116.406V115.75ZM348.625 133V99.1875H362.656C364.844 99.1875 366.812 99.3854 368.562 99.7812C370.333 100.156 371.844 100.729 373.094 101.5C374.323 102.292 375.26 103.281 375.906 104.469C376.573 105.656 376.906 107.042 376.906 108.625C376.906 109.521 376.74 110.365 376.406 111.156C376.073 111.948 375.583 112.667 374.938 113.312C374.458 113.792 373.875 114.24 373.188 114.656C372.521 115.052 371.76 115.396 370.906 115.688L371.281 115.75C372.469 116.021 373.51 116.406 374.406 116.906C375.302 117.385 376.062 117.938 376.688 118.562C377.312 119.229 377.781 119.969 378.094 120.781C378.406 121.594 378.562 122.448 378.562 123.344C378.562 124.948 378.25 126.354 377.625 127.562C377.021 128.771 376.135 129.771 374.969 130.562C373.802 131.375 372.365 131.99 370.656 132.406C368.969 132.802 367.031 133 364.844 133H348.625ZM357.312 118.906V126.094H364.844C365.719 126.094 366.479 126.021 367.125 125.875C367.771 125.708 368.292 125.479 368.688 125.188C369.104 124.875 369.406 124.5 369.594 124.062C369.781 123.625 369.875 123.115 369.875 122.531C369.875 122.01 369.792 121.542 369.625 121.125C369.458 120.688 369.188 120.312 368.812 120C368.417 119.646 367.885 119.375 367.219 119.188C366.573 119 365.781 118.906 364.844 118.906H357.312ZM357.312 113H363.125C364 112.979 364.76 112.896 365.406 112.75C366.052 112.604 366.583 112.396 367 112.125C367.417 111.854 367.719 111.521 367.906 111.125C368.115 110.729 368.219 110.271 368.219 109.75C368.219 109.167 368.125 108.667 367.938 108.25C367.75 107.812 367.458 107.448 367.062 107.156C366.625 106.823 366.031 106.573 365.281 106.406C364.552 106.24 363.677 106.156 362.656 106.156H357.312V113ZM407.938 99.1875H416.625V133H407.938V111.438L395.219 133H386.531V99.1875H395.219V120.75L407.938 99.1875ZM440.562 126.688C441.417 126.688 442.229 126.562 443 126.312C443.771 126.062 444.448 125.708 445.031 125.25C445.615 124.792 446.062 124.24 446.375 123.594C446.708 122.948 446.854 122.229 446.812 121.438H455C455.042 123.188 454.677 124.812 453.906 126.312C453.156 127.812 452.125 129.104 450.812 130.188C449.5 131.271 447.969 132.125 446.219 132.75C444.49 133.354 442.656 133.656 440.719 133.656C438.094 133.656 435.792 133.219 433.812 132.344C431.833 131.448 430.188 130.229 428.875 128.688C427.542 127.146 426.531 125.344 425.844 123.281C425.177 121.198 424.844 118.969 424.844 116.594V115.656C424.844 113.281 425.177 111.062 425.844 109C426.51 106.917 427.51 105.104 428.844 103.562C430.177 102.021 431.823 100.802 433.781 99.9062C435.76 99.0104 438.052 98.5625 440.656 98.5625C442.74 98.5625 444.667 98.875 446.438 99.5C448.208 100.125 449.74 101 451.031 102.125C452.302 103.271 453.292 104.656 454 106.281C454.708 107.885 455.042 109.688 455 111.688H446.812C446.854 110.854 446.729 110.062 446.438 109.312C446.146 108.562 445.719 107.917 445.156 107.375C444.594 106.833 443.917 106.406 443.125 106.094C442.333 105.76 441.469 105.594 440.531 105.594C439.156 105.594 438.021 105.875 437.125 106.438C436.229 107 435.521 107.75 435 108.688C434.458 109.625 434.073 110.698 433.844 111.906C433.635 113.115 433.531 114.365 433.531 115.656V116.594C433.531 117.906 433.635 119.177 433.844 120.406C434.052 121.615 434.427 122.677 434.969 123.594C435.49 124.531 436.198 125.281 437.094 125.844C438.01 126.406 439.167 126.688 440.562 126.688Z" fill="#AFD1F9"/>
<path d="M17.1562 48.3125H13.5V67H4.71875V21.5H13.5V41.5312H15.6562L27.5625 21.5H37.7188L24.1562 43.4062L38.25 67H28.0625L17.1562 48.3125ZM72.2812 33.1875V67H63.5625V40.25H54.375V47.5938C54.375 48.7604 54.3438 49.8854 54.2812 50.9688C54.2396 52.0521 54.1562 53.0729 54.0312 54.0312C53.8229 55.6771 53.5104 57.1771 53.0938 58.5312C52.6771 59.8854 52.1458 61.0833 51.5 62.125C50.4583 63.75 49.0833 64.9688 47.375 65.7812C45.6875 66.5938 43.5938 67 41.0938 67H39.5625L39.5 59.8438H40.5312C41.6354 59.8438 42.5208 59.625 43.1875 59.1875C43.875 58.75 44.4062 58.0417 44.7812 57.0625C44.9688 56.5208 45.125 55.8958 45.25 55.1875C45.375 54.4792 45.4688 53.6771 45.5312 52.7812C45.5938 52.0521 45.625 51.2604 45.625 50.4062C45.6458 49.5312 45.6562 48.5938 45.6562 47.5938V33.1875H72.2812ZM102.062 33.1875H110.75V67H102.062V45.4375L89.3438 67H80.6562V33.1875H89.3438V54.75L102.062 33.1875ZM149.156 67H140.438V53.875H127.812V67H119.094V33.1875H127.812V46.875H140.438V33.1875H149.156V67ZM178.938 33.1875H187.625V67H178.938V45.4375L166.219 67H157.531V33.1875H166.219V54.75L178.938 33.1875ZM226.031 67H217.312V53.875H204.688V67H195.969V33.1875H204.688V46.875H217.312V33.1875H226.031V67ZM264.188 40.25H243.75V67H235.094V33.1875H264.188V40.25Z" fill="#467EEC"/>
</svg>
